# ProBuilder 5.0.7
# https://unity3d.com/unity/features/worldbuilding/probuilder
# 22.11.2023 10:57:21

mtllib ./Boden_Tempel_Valley_001.mtl
o Boden Tempel Valley 001

g Cube (13)
v -55.35482 -6.458489E-05 -107.1771
v -55.35488 -4.279036E-05 -164.8054
v -55.35482 90.28986 -107.1771
v -55.35489 90.28987 -164.8054
v -34.39762 -7.629395E-06 -164.8054
v 2.418031 -7.629395E-06 -164.8054
v -34.39762 90.28989 -164.8054
v 2.418031 90.28989 -164.8054
v 2.418082 -2.979861E-06 8.90099
v 2.418079 90.28992 8.90095
v -34.39758 4.079804E-06 -80.89356
v -34.30433 207.261 -131.0638
v 2.51135 207.261 -131.0638
v -55.26157 207.2608 -131.0638
v -55.26148 185.4409 -84.09534
v 2.511456 140.4765 12.28826
v -34.39759 90.28992 -80.89357
v -29.37504 171.2638 -55.26531
v -18.8965 256.7921 -102.8562
v 2.511302 256.7921 -102.8561
v -36.37514 256.3394 -102.0626
v -36.37506 231.6175 -50.00632
v 2.511409 197.9068 26.64655
v 2.511247 314.1409 -70.18942
v 2.511354 256.2372 57.59229
v -26.3752 310.0079 -62.24224
v -4.375197 314.1409 -70.18948
v -26.37511 285.2859 -10.18571
v -18.89642 220.7948 -27.05755
v -10.37517 274.1762 12.56525
v 2.425376 371.4937 -37.52992
v 2.764389 335.8888 105.3252
v -39.85386 368.0707 -31.51157
v -4.418496 371.498 -37.5213
v -26.37526 356.0262 67.30826
v 2.72138 422.8508 56.10177
v 2.624703 352.5069 164.3063
v -34.87782 412.5981 123.6178
v -4.07992 422.8593 56.11905
v -29.37531 381.0174 142.5773
v -10.07957 348.8279 69.08054
v -7.375307 375.1944 150.7684
v -6.89422 422.4395 195.1318
v 0.6246265 423.9109 223.4354
v -15.41053 420.4319 166.3574
v 2.62465 372.2993 252.7272
v -6.37534 388.5538 204.8992
v -17.21356 402.1223 166.1271

vt -107.1771 -6.224619E-05
vt -164.8054 -4.045165E-05
vt -107.1771 90.28986
vt -164.8054 90.28987
vt 34.39762 -7.629395E-06
vt -2.418031 -7.629395E-06
vt 34.39762 90.28989
vt -2.418031 90.28989
vt 164.8054 -7.629395E-06
vt -8.900991 -2.979861E-06
vt 164.8054 90.28989
vt -8.900951 90.28992
vt 2.418031 -164.8054
vt -34.39762 -164.8054
vt 2.418082 8.90099
vt -34.39758 -80.89356
vt -55.35482 -107.1771
vt -55.35488 -164.8054
vt 34.39727 -7.629395E-06
vt 34.39727 90.28989
vt 55.35452 -4.279036E-05
vt 55.35453 90.28987
vt 34.39762 41.0752
vt -2.418031 41.0752
vt 34.30433 162.8156
vt -2.417982 41.07518
vt -2.511311 162.8156
vt 55.35447 41.07506
vt 34.39721 41.07508
vt 55.26124 162.8154
vt 34.39678 41.07514
vt 34.30365 162.8155
vt 55.2609 162.8154
vt -107.1771 90.23553
vt -164.8054 90.23554
vt -84.0954 185.3867
vt -164.8235 90.25097
vt -131.0819 207.222
vt -84.11348 185.4021
vt 164.8054 90.29179
vt -8.900951 90.29182
vt 131.0638 207.2629
vt -8.902981 90.29412
vt -12.29037 140.4808
vt 131.0617 207.2654
vt 9.152928 90.29138
vt -87.89577 90.29139
vt 12.32247 140.4923
vt -87.89865 90.00771
vt -62.40467 171.1795
vt 12.26523 140.317
vt -84.69341 85.84179
vt -118.3093 85.84173
vt -61.52404 167.7074
vt -118.2329 85.70386
vt -100.1738 181.9347
vt -61.48672 167.5967
vt -84.69341 90.28992
vt -84.69341 4.542199E-06
vt -118.3093 90.28986
vt -118.3093 -6.536241E-05
vt 9.152966 -3.135402E-06
vt -87.89576 3.924263E-06
vt 9.152928 90.28992
vt -87.89577 90.28992
vt 34.30435 115.2431
vt -2.511326 115.2432
vt 18.89652 172.2432
vt -2.510916 115.2429
vt -2.510962 172.243
vt 55.2607 111.7592
vt 34.30345 111.7594
vt 36.37446 168.7661
vt 26.30849 111.4186
vt 12.63625 168.8597
vt 30.13087 168.3347
vt -91.00772 165.1484
vt -137.513 187.9388
vt -54.60904 213.3788
vt -137.5564 188.338
vt -106.1779 239.5421
vt -54.6437 213.7496
vt 131.0638 207.261
vt -12.28826 140.4765
vt 102.8561 256.7921
vt -26.64655 197.9068
vt 70.18942 314.1409
vt -57.59229 256.2372
vt 29.68569 142.1718
vt 12.19236 142.7383
vt 22.28687 209.3374
vt -28.42214 164.7552
vt -27.04118 232.3197
vt -3.791861 227.4504
vt 18.89684 172.2237
vt -2.510962 172.2237
vt 4.375429 238.2237
vt -2.509985 172.2235
vt -2.510348 238.2235
vt 4.376096 238.2235
vt -52.27468 224.96
vt -104.2199 249.9144
vt -11.88611 279.1332
vt -63.83155 304.0877
vt 12.29426 140.0539
vt -62.3463 170.9873
vt 25.51463 197.7568
vt -62.1822 171.3346
vt -32.09648 220.869
vt 25.71662 197.9794
vt -61.62498 166.4407
vt -100.283 180.8569
vt -32.95384 216.8071
vt -100.5667 184.3252
vt -61.83164 230.7001
vt -33.00213 219.8309
vt 26.1174 196.2439
vt -31.57428 219.4378
vt 55.54684 255.3538
vt -31.04738 221.0641
vt 9.426897 274.4868
vt 56.25637 256.5339
vt -32.95345 214.3738
vt -61.66769 225.5439
vt 5.21308 269.4689
vt -61.52126 227.8457
vt -22.08366 282.7151
vt 5.629484 271.3568
vt 70.19077 314.1377
vt -57.59093 256.234
vt 37.53122 371.4906
vt -57.59899 256.2405
vt -105.3325 335.8922
vt 37.5231 371.4972
vt -1.006023 264.1926
vt -24.34171 268.6296
vt 23.73457 326.5244
vt -11.11702 240.8873
vt -3.91378 306.501
vt 31.97712 302.5804
vt 4.376096 238.2327
vt -2.510348 238.2327
vt 4.418976 304.2407
vt -2.574751 238.252
vt -2.459331 304.2519
vt 4.384546 304.2568
vt -10.18572 285.2859
vt -62.24225 310.0079
vt 67.30824 356.0262
vt -64.58848 303.6397
vt -35.37682 364.0055
vt 64.29913 351.4832
vt 37.52344 371.4961
vt -105.3321 335.8911
vt -56.10871 422.8532
vt -105.3197 335.8837
vt -164.3009 352.5018
vt -56.09644 422.8458
vt -13.23637 69.24137
vt -48.79745 63.00134
vt -24.53414 230.3157
vt -33.85926 307.1502
vt 54.23083 367.5386
vt 128.1519 355.4739
vt 4.393617 145.758
vt -2.450255 145.7482
vt 4.051601 252.5592
vt -2.477803 145.7495
vt -2.781054 252.541
vt 4.020245 252.5607
vt 64.70293 343.686
vt -34.92303 356.6001
vt 139.409 370.4814
vt -34.21844 369.8214
vt 120.8796 414.7343
vt 140.1772 382.8802
vt 56.66925 255.4088
vt 9.894695 273.5043
vt 103.2239 335.7552
vt 9.301367 271.4615
vt 63.80208 347.5969
vt 102.1678 334.4007
vt 6.422224 264.2019
vt -21.12921 275.947
vt 56.8041 343.1234
vt -158.9475 141.2911
vt -192.6085 240.6713
vt -174.8507 242.9442
vt 104.5059 300.5489
vt 66.72168 315.3277
vt 162.7697 319.5299
vt 66.87909 335.9213
vt 148.0912 363.8498
vt 162.94 339.8183
vt -159.6722 156.7121
vt -177.4787 154.859
vt -168.6146 242.1254
vt -151.8628 156.2042
vt -163.5956 234.6983
vt -140.9674 243.2404
vt 4.612557 54.83096
vt -2.188749 54.81368
vt 7.426326 193.8444
vt -71.16095 59.55129
vt -69.26353 226.8907
vt -61.60566 198.5861
vt -109.6793 129.5172
vt -142.1262 62.011
vt -130.6541 172.2614
vt -90.8816 56.77908
vt -88.04485 195.792
vt -79.29523 167.0175
vt -56.06366 422.7238
vt -164.261 352.3689
vt -223.4105 423.7841
vt -164.3216 352.252
vt -252.7399 372.056
vt -223.4336 423.6982
vt -133.7272 228.0058
vt -156.4008 219.5849
vt -137.3005 283.6551
vt 125.1306 361.861
vt 151.3627 383.3037
vt 191.5473 369.518
vt 163.915 332.908
vt 149.561 357.2383
vt 252.0029 354.1335
vt 149.5031 366.299
vt 203.5062 380.2018
vt 251.9478 363.2861
vt 185.4236 417.5042
vt 194.9465 383.545
vt 155.4156 415.4923
vt 193.6631 380.9402
vt 153.4232 394.5638
vt 154.1811 412.9479
vt 247.5442 366.8552
vt 198.8951 383.1648
vt 218.4938 418.6417
vt 196.5655 384.5021
vt 186.9865 418.4455
vt 216.2717 419.9194
vt 118.8633 373.0001
vt 99.28745 404.6839
vt 145.3129 394.1739
vt 99.20884 404.1906
vt 146.1684 412.0527
vt 145.2335 393.6768

vn -1 -4.224943E-08 1.125312E-06
vn 0 0 -1
vn 1 0 -2.950956E-07
vn 0 -1 2.676662E-08
vn 0 0.2771601 -0.9608238
vn -0.9999995 0.000980672 1.125442E-06
vn 0.9999997 -0.0007977148 -2.771474E-07
vn 0.999998 -0.001803826 -0.000841103
vn -0.9249884 -0.02387581 0.3792444
vn -0.9140175 -0.06978852 0.3996268
vn -0.7733601 -0.1471983 0.6166416
vn -0.7711146 -0.1493821 0.6189242
vn -0.7818773 1.964547E-08 0.6234325
vn -0.9252523 1.365262E-07 0.3793524
vn 1.550493E-07 0.4948709 -0.8689665
vn -5.726987E-06 0.508733 -0.8609243
vn -0.05219239 0.5064067 -0.8607138
vn -0.9479752 0.2887096 0.1341263
vn -0.9488754 0.2851301 0.1354116
vn -0.05177318 0.6012695 -0.7973673
vn -0.3744902 0.5287122 -0.761722
vn -0.9885669 0.1362032 0.0646854
vn -0.9163999 -0.09708348 0.3883118
vn -0.9305412 -0.01157594 0.3660041
vn -0.7743994 -0.181368 0.6061446
vn -0.8126531 -0.09238372 0.5753783
vn -0.9384603 -0.1618683 0.3051081
vn -0.9646925 -0.03931181 0.2604284
vn -0.8234982 -0.2474683 0.5105
vn -0.8449892 -0.208082 0.492641
vn 0.9999992 0.001190506 0.0005386338
vn 0.9999951 -0.001526607 -0.002753599
vn -0.3761689 0.3637071 -0.852182
vn -0.1916199 0.4856327 -0.8529025
vn -0.0007862253 0.4948401 -0.8689837
vn -0.9569296 -0.2735733 0.09717698
vn 0.9999961 -0.0009880925 -0.002619384
vn 0.9999969 0.001582704 0.001922384
vn -0.137842 0.9531767 -0.2691726
vn -0.8011379 0.5259472 -0.2855831
vn -5.871679E-05 0.8767723 -0.4809057
vn -0.928993 -0.360729 0.08274369
vn -0.9889945 -0.1307439 0.0692516
vn -0.965692 -0.1312262 0.2240953
vn -0.944176 -0.1964639 0.2644497
vn -0.8409778 -0.3244652 0.4329882
vn -0.3710448 -0.6858355 0.6260635
vn -0.8651801 -0.4832 0.134094
vn -0.9340288 -0.3297351 0.1373501
vn -0.4128459 -0.862685 0.2921177
vn -0.3426762 -0.8955929 0.2837014
vn 0.00125961 0.9999946 0.003045569
vn -0.1619322 0.9867672 -0.00828024
vn -0.3451252 0.9384398 -0.01480894
vn -0.2243238 0.9745134 -0.001598302
vn 0.9997659 0.01772324 0.01241517
vn 0.9993799 0.03436233 -0.007691151
vn -0.3286991 -0.9154923 0.2320144
vn -0.9301227 0.1768169 0.3218813
vn -0.9289699 -0.3612166 0.08085506
vn -0.9570572 -0.2768475 0.08600547
vn -0.9580483 0.06573976 0.2789651
vn -0.9505847 0.08986983 0.2971736
vn -0.9739907 0.0821135 0.2111862
vn -0.9655842 0.05827767 0.2534774
vn -0.9132415 0.08063561 0.3993593
vn -0.9125373 0.08482838 0.4000999

usemtl ProBuilderDefault
f 3/3/1 2/2/1 1/1/1
f 3/3/1 4/4/1 2/2/1
f 7/7/2 6/6/2 5/5/2
f 7/7/2 8/8/2 6/6/2
f 8/11/3 9/10/3 6/9/3
f 8/11/3 10/12/3 9/10/3
f 9/15/4 5/14/4 6/13/4
f 9/15/4 11/16/4 5/14/4
f 1/17/4 5/14/4 11/16/4
f 1/17/4 2/18/4 5/14/4
f 2/21/2 7/20/2 5/19/2
f 2/21/2 4/22/2 7/20/2
f 12/25/5 8/24/5 7/23/5
f 12/25/5 13/27/5 8/26/5
f 14/30/5 7/29/5 4/28/5
f 14/33/5 12/32/5 7/31/5
f 15/36/6 4/35/6 3/34/6
f 15/39/6 14/38/6 4/37/6
f 13/42/7 10/41/7 8/40/7
f 13/45/8 16/44/8 10/43/8
f 16/48/9 17/47/9 10/46/9
f 16/51/10 18/50/10 17/49/10
f 18/54/11 3/53/11 17/52/11
f 18/57/12 15/56/12 3/55/12
f 3/60/13 11/59/13 17/58/13
f 3/60/13 1/61/13 11/59/13
f 10/64/14 11/63/14 9/62/14
f 10/64/14 17/65/14 11/63/14
f 19/68/15 13/67/15 12/66/15
f 19/68/15 20/70/15 13/69/15
f 21/73/16 12/72/16 14/71/16
f 21/76/17 19/75/17 12/74/17
f 22/79/18 14/78/18 15/77/18
f 22/82/19 21/81/19 14/80/19
f 20/85/3 16/84/3 13/83/3
f 20/85/3 23/86/3 16/84/3
f 24/87/3 23/86/3 20/85/3
f 24/87/3 25/88/3 23/86/3
f 26/91/20 19/90/20 21/89/20
f 26/94/21 27/93/21 19/92/21
f 27/97/15 20/96/15 19/95/15
f 27/100/15 24/99/15 20/98/15
f 28/103/22 21/102/22 22/101/22
f 28/103/22 26/104/22 21/102/22
f 23/107/23 18/106/23 16/105/23
f 23/110/24 29/109/24 18/108/24
f 29/113/25 15/112/25 18/111/25
f 29/116/26 22/115/26 15/114/26
f 25/119/27 29/118/27 23/117/27
f 25/122/28 30/121/28 29/120/28
f 30/125/29 22/124/29 29/123/29
f 30/128/30 28/127/30 22/126/30
f 31/131/31 25/130/31 24/129/31
f 31/134/32 32/133/32 25/132/32
f 33/137/33 27/136/33 26/135/33
f 33/140/34 34/139/34 27/138/34
f 34/143/15 24/142/15 27/141/15
f 34/146/35 31/145/35 24/144/35
f 35/149/1 26/148/1 28/147/1
f 35/152/36 33/151/36 26/150/36
f 36/155/37 32/154/37 31/153/37
f 36/158/38 37/157/38 32/156/38
f 38/161/39 34/160/39 33/159/39
f 38/164/40 39/163/40 34/162/40
f 39/167/41 31/166/41 34/165/41
f 39/170/41 36/169/41 31/168/41
f 40/173/42 33/172/42 35/171/42
f 40/176/43 38/175/43 33/174/43
f 32/179/44 30/178/44 25/177/44
f 32/182/45 41/181/45 30/180/45
f 41/185/46 28/184/46 30/183/46
f 41/188/47 35/187/47 28/186/47
f 37/191/48 41/190/48 32/189/48
f 37/194/49 42/193/49 41/192/49
f 42/197/50 35/196/50 41/195/50
f 42/200/51 40/199/51 35/198/51
f 43/203/52 36/202/52 39/201/52
f 43/206/53 44/205/53 36/204/53
f 45/209/54 39/208/54 38/207/54
f 45/212/55 43/211/55 39/210/55
f 44/215/56 37/214/56 36/213/56
f 44/218/57 46/217/57 37/216/57
f 47/221/58 40/220/58 42/219/58
f 47/224/59 48/223/59 40/222/59
f 46/227/60 42/226/60 37/225/60
f 46/230/61 47/229/61 42/228/61
f 45/233/62 47/232/62 43/231/62
f 45/236/63 48/235/63 47/234/63
f 44/239/64 47/238/64 46/237/64
f 44/242/65 43/241/65 47/240/65
f 48/245/66 38/244/66 40/243/66
f 48/248/67 45/247/67 38/246/67

