# ProBuilder 5.0.7
# https://unity3d.com/unity/features/worldbuilding/probuilder
# 22.11.2023 11:46:36

mtllib ./Boden_Tempel_Valley_002.mtl
o Boden Tempel Valley 002

g Cube (12)
v 0 0 140.5
v -261 0 140.5
v -30.75 16 74.75
v -256.75 20 30.75
v -365.5 0 0
v -365.5 0 -197
v -287.75 16 -36.25
v -272.5 23 -197
v 132.25 11.5 -868.25
v 200.25 -23.5 -746.25
v 139.25 55 -867.25
v 0 0 -197
v 0 0 0
v 0 35 -197
v 0 23 0
v -224.75 23 -16.25
v -261 23 -197
v -261 0 -197
v -261 0 0
v -347.75 0 120.75
v -285.75 15 79.75
v -125.335 42.5 -398.25
v 47.83496 42.5 -398.25
v -125.335 68.16711 -398.25
v 378.58 -41.25006 -399.257
v 378.58 -18.24994 -399.257
v 453.8309 -23.24994 -442.9756
v 453.8882 7.125 -443.0175
v 47.83496 65.5 -398.25
v -125.335 42.5 -543.25
v 47.83496 42.5 -543.25
v -84.75 71.04639 -560.25
v 503.3076 -23.37549 -414.5471
v 503.3651 -0.3751526 -414.5893
v 513.8097 -24.37518 -440.275
v 513.796 -1.374786 -440.225
v 47.83496 69.42889 -543.25
v -94.33496 42.5 -636.25
v 78.83496 28.5 -636.25
v -43.75 66 -664.25
v 523.2886 -24.50006 -459.7915
v 523.2114 -1.499969 -459.6793
v 78.83496 51.89151 -636.25
v 116.8386 0 -196.8844
v 116.8386 23 -196.8844
v 164.6871 42.5 -398.1914
v 164.6871 48 -398.1914
v 164.6871 42.5 -543.1689
v 164.6871 65.5 -543.1689
v 195.6614 42.5 -636.0919
v 195.6614 43.50061 -636.0919
v 200.25 -0.5 -746.25
v 241.7988 -3.5 -714.0999
v 241.7988 -26.5 -714.0999
v 559.1923 -29.62488 -481.9529
v 559.1924 -6.624695 -481.9529
v 166.25 28 -807.25
v -7.75 60 -636.25
v 18.95752 59 -752.25
v 139.5425 25 -691.25
v 61.58334 47.24536 -672.9167
v 70.83765 45.55869 -731.9472
v 115.124 39.80624 -780.6995
v 352.7838 18.5 -429.3651
v 277.5855 0.5 -335.1029
v 373.2584 5.5 -527.2618
v 363.25 17.5 -491.263
v 277.5855 23.5 -335.1029
v 408.9145 -26 -575.3971
v 408.9145 -3 -575.3971
v 374.25 33 -425.25
v 363.25 40.5 -491.237
v 373.2416 28.5 -527.2382
v 474.3274 -23.5 -488.3728
v 464.3438 -24.25012 -471.731
v 509.92 -29.5 -510.6335
v 509.92 0.8749695 -510.6335
v 464.3409 6.124908 -465.25
v 460.25 7 -491.25

vt 0 136.5161
vt 261 136.5161
vt 30.75 68.84731
vt 260.9594 137.4185
vt 256.3571 25.87501
vt 30.46291 70.59403
vt 357.9982 0
vt 357.9982 -197
vt 278.619 -36.25
vt 354.8104 -198.673
vt 259.0085 -198.673
vt 275.493 -37.89249
vt 676.6458 81.50908
vt 537.0446 46.23151
vt 672.1885 125.3541
vt 197 0
vt 0 0
vt 197 35
vt 0 23
vt -0.101296 -1.398396
vt 224.6465 -17.67852
vt -0.1541461 -198.7635
vt 223.4565 -16.55601
vt 259.6682 -197.3137
vt -1.607497 -197.3137
vt 0 -197
vt -261 -197
vt -261 0
vt 0 140.5
vt -261 140.5
vt -80.82775 16
vt 34.66356 74.75
vt 358.9047 -1.920769
vt 279.5318 -38.18477
vt 341.4749 118.8759
vt 276.5688 -37.24516
vt 274.8487 78.76364
vt 338.6354 119.7668
vt 224.6467 -17.67664
vt -0.1011652 -1.396597
vt 256.6595 29.41025
vt -0.01134464 -2.139857
vt 30.7421 72.93578
vt 256.7401 28.7441
vt -365.5 0
vt -365.5 -197
vt -347.75 120.75
vt 261 0
vt 261 23
vt 365.5 0
vt 272.5 23
vt 261 -197
vt 224.75 -16.25
vt 272.5 -197
vt 220.3458 -17.82792
vt 283.7303 -37.83804
vt 267.7485 -198.6693
vt 220.9798 -15.79504
vt 253.1169 31.20716
vt 284.3672 -35.79597
vt 250.7501 30.09458
vt 280.1729 79.09762
vt 281.9982 -36.90957
vt 256.963 33.34755
vt 258.2994 144.9779
vt 284.9456 83.18708
vt 260.5004 131.3557
vt 347.0844 110.89
vt 284.2754 68.40434
vt -261 -192.7489
vt 0 -192.7489
vt -125.335 -398.4375
vt 47.83496 -398.4375
vt -17.46007 23
vt -17.46007 0
vt -260.1668 68.16711
vt -260.1668 42.5
vt 527.9107 -41.25006
vt 527.9107 -18.24994
vt 614.9395 -23.24994
vt 527.9129 -18.21191
vt 615.0123 7.163025
vt 614.9417 -23.21191
vt -1.607497 -199.9483
vt 259.6682 -199.9483
vt -50.7928 -403.1743
vt 261.3232 -196.1226
vt 126.3699 -402.8452
vt -46.82059 -402.8452
vt -125.335 -398.25
vt 47.83496 -398.25
vt -125.335 -543.25
vt 47.83496 -543.25
vt -355.8533 68.16711
vt -355.8533 42.5
vt -522.8597 71.04639
vt 78.06487 -398.25
vt 78.06487 -543.25
vt 28.44597 -560.25
vt 574.033 -22.87512
vt 574.0938 0.1252459
vt 601.8218 -23.87482
vt 573.7313 -0.2929813
vt 601.4079 -1.292615
vt 601.4593 -24.29301
vt -46.82059 -399.8976
vt 126.3699 -399.8976
vt -46.76009 -544.9508
vt 125.9844 -399.5199
vt 85.42896 -561.5529
vt -47.16543 -544.5494
vt -94.33496 -636.25
vt 44.25464 -533.5239
vt 76.28198 -627.2268
vt -97.45294 -627.2268
vt 17.5032 -506.4864
vt 66.8682 -488.7627
vt -10.17193 -614.9141
vt 87.86636 -519.8915
vt 60.93049 -614.1489
vt 5.345018 -642.5275
vt 620.5106 -24.26421
vt 620.4597 -1.263811
vt 642.2072 -24.38909
vt 620.0847 -1.6166
vt 641.6976 -1.741783
vt 641.8323 -24.74188
vt -45.38515 -522.577
vt 87.17559 -539.8407
vt -76.97776 -617.0199
vt -0.1949383 0
vt -0.1949383 35
vt 116.6437 0
vt 116.6437 23
vt 47.83946 -398.4374
vt 0 -192.7498
vt 164.6916 -398.3775
vt 0 -192.7531
vt 116.8386 -192.635
vt 164.696 -398.3773
vt 3.569895 -200.0529
vt -40.90469 -404.3615
vt -113.8833 -199.9355
vt -37.6118 -404.585
vt -155.7671 -404.5256
vt -112.1465 -200.7212
vt 164.6871 -543.1689
vt 164.6871 -398.1914
vt -37.60712 -400.0321
vt -37.02526 -545.0842
vt -155.7624 -399.9735
vt -45.48081 -547.8424
vt -162.399 -547.7607
vt -162.9856 -401.732
vt 81.66118 -621.6583
vt 52.54271 -527.0109
vt 199.3235 -621.4973
vt 195.6614 -636.0919
vt -45.46614 -522.5242
vt -77.03999 -616.9733
vt -162.3843 -522.4418
vt -74.8985 -610.478
vt -192.0259 -610.3163
vt -159.5495 -515.325
vt 298.3131 -0.5
vt 298.3131 -23.5
vt 245.778 -3.5
vt 245.778 -26.5
vt -97.45293 -633.4166
vt 76.28198 -633.4166
vt 130.8932 -865.7607
vt 59.84252 -637.6887
vt 191.8855 -747.7352
vt 115.4893 -869.7869
vt -382.8724 -24.47396
vt -707.1385 -55.73474
vt -711.3846 -11.8688
vt -191.999 -527.3927
vt -74.87167 -527.5738
vt -241.4178 -616.7277
vt 81.6507 -535.8478
vt 199.313 -535.6634
vt 196.0693 -664.121
vt 154.0791 -507.7377
vt 226.8174 -595.3964
vt 188.5586 -631.5239
vt 686.7623 -24.77897
vt 686.6378 -1.778812
vt 728.9548 -29.9038
vt 686.8221 -1.500031
vt 729.1393 -6.624757
vt 729.1392 -29.62494
vt 715.435 -75.42641
vt 780.8579 -47.53669
vt 646.8834 -128.6235
vt 554.3418 -0.5
vt 624.1773 28
vt 554.3418 -23.5
vt 94.71247 -560.9444
vt 53.42518 -664.9532
vt 16.93041 -636.9508
vt 91.00516 -556.3907
vt 13.31063 -632.4866
vt -73.65318 -632.4866
vt -8.944937 -553.2732
vt 44.90437 -521.7241
vt -52.46162 -652.4272
vt -374.9104 178.4655
vt -703.409 191.4216
vt -536.9936 195.5676
vt -130.259 -666.5429
vt -195.1635 -722.6505
vt -236.3126 -689.853
vt -65.52559 -603.8792
vt -130.6546 -660.3748
vt -236.6727 -683.8461
vt 20.37148 -629.9724
vt -50.08677 -666.3507
vt -65.95008 -629.1599
vt -130.9969 -685.0226
vt -59.48786 -725.1808
vt 56.82275 -658.0293
vt -195.7469 -740.7805
vt 61.17284 -662.1222
vt -0.8324538 -750.7676
vt -54.37376 -731.2478
vt -98.40119 -780.5432
vt -117.0145 -869.5927
vt -150.7423 -807.32
vt -191.6023 -744.1785
vt 155.2855 -403.1902
vt 115.2002 -195.7934
vt 344.7497 -435.3069
vt 273.6096 -336.5248
vt 185.5527 -639.3354
vt 155.0318 -546.2625
vt 366.8575 -530.3298
vt 354.9501 -494.963
vt 158.088 -543.1689
vt 158.088 -398.1914
vt 358.2186 -491.263
vt 347.7094 -429.3651
vt 216.9554 0
vt 216.9554 23
vt 428.9552 0.5
vt 428.9552 23.5
vt 228.7661 -591.0513
vt 156.9603 -502.6271
vt 378.5899 -433.828
vt 332.7063 -385.4383
vt 270.0059 -3.5
vt 270.0059 -26.5
vt 52.82829 -3
vt 52.82829 -26
vt -112.8872 -200.3587
vt -157.1043 -404.0345
vt -272.222 -340.2036
vt -159.165 -402.8316
vt -369.187 -430.4825
vt -273.9262 -338.3621
vt -159.897 -402.7598
vt -158.3774 -548.7817
vt -369.9709 -430.0133
vt -157.3068 -548.4975
vt -357.3747 -496.3248
vt -369.0699 -430.0319
vt -151.1323 -518.8011
vt -185.3997 -613.1611
vt -351.0527 -466.0661
vt -179.5379 -593.8643
vt -355.5392 -481.4702
vt -342.9633 -444.2982
vt -171.8906 -556.6454
vt -230.5157 -640.2281
vt -345.1121 -440.0128
vt -230.4311 -639.9321
vt -388.7647 -491.282
vt -344.9445 -439.6693
vt 347.5529 -486.9688
vt 333.9678 -450.1514
vt 452.3689 -447.1954
vt 443.2845 -431.8062
vt 308.416 -460.2969
vt 248.8777 -353.9045
vt 417.516 -475.6588
vt 357.9307 -414.0367
vt 330.3858 -498.0123
vt 320.3043 -436.0424
vt 439.7574 -478.4576
vt 429.6325 -449.591
vt 398.4536 -496.84
vt 355.1054 -444.8635
vt 496.015 -426.9083
vt 460.2331 -408.0816
vt 413.9881 0.5
vt 413.9881 23.5
vt 533.6361 -41.25006
vt 533.6361 -18.24994
vt -33.65288 -3
vt -33.65288 -26
vt -153.638 0.8749695
vt -153.6379 -29.5
vt -344.0185 -432.8183
vt -331.1971 -498.9026
vt -427.7492 -450.612
vt -334.4749 -503.2487
vt -441.2202 -477.1377
vt -430.9474 -454.7992
vt -322.6176 -446.149
vt -336.3344 -482.9154
vt -429.2572 -419.6097
vt -355.2505 -526.591
vt -444.8757 -490.6023
vt -449.0568 -464.6019
vt -336.4952 -447.7771
vt -381.2633 -498.5698
vt -425.3049 -409.8207
vt -408.3133 -565.0246
vt -508.884 -499.4732
vt -458.9297 -479.8539
vt 429.5894 49.29009
vt 561.7002 59.65857
vt 547.8365 3.723452
vt 505.1595 144.5686
vt 585.7135 115.6117
vt 499.5521 87.21444
vt 172.8122 -21.94565
vt 172.841 8.429358
vt 229.8747 -22.0712
vt 229.9034 0.9292222
vt 474.2205 -486.8486
vt 464.2336 -470.1918
vt 523.1768 -458.2415
vt 513.6985 -438.7496
vt 464.7358 -471.964
vt 454.205 -443.1977
vt 514.1943 -440.4961
vt 503.6744 -414.7562
vt 510.618 -504.1996
vt 474.6525 -481.7307
vt 559.7335 -475.2508
vt 523.5298 -453.0024
vt -183.8164 0.8753222
vt -183.8164 -29.49965
vt -240.8282 -6.624342
vt -240.8281 -29.62453
vt -448.5373 -444.356
vt -459.0278 -466.5931
vt -498.576 -415.9218
vt -458.8598 -466.5001
vt -508.8781 -441.4708
vt -498.4103 -415.8306
vt -458.5662 -465.9958
vt -454.3917 -491.9972
vt -508.5859 -440.9694
vt -456.6549 -493.4276
vt -520.1701 -461.8218
vt -510.7985 -442.346
vt -455.6089 -492.0609
vt -505.6544 -511.4461
vt -519.1401 -460.4875
vt -504.3365 -511.2231
vt -554.1758 -482.5416
vt -517.8322 -460.2672

vn 0 0.9716447 0.2364459
vn -0.01736027 0.9837682 0.1786021
vn -0.2015641 0.9794753 0
vn -0.2400332 0.970569 0.01949286
vn 0.8509005 -0.125198 -0.5101899
vn 1 0 0
vn -0.004396026 0.9981403 0.06080043
vn -0.04592655 0.9989024 0.009210719
vn 0 -1 0
vn 0.9248062 0 0.3804387
vn 0.4615798 0.8870987 0
vn -0.1890403 0.9815761 0.02778853
vn -0.2274324 0.973716 0.01231535
vn -0.0004911058 0.9956625 0.09303728
vn 0 0 -1
vn 0 1 0
vn -0.1203394 0.9922236 0.03179091
vn -0.1073957 0.9941694 -0.009662852
vn -0.1515972 0.9883797 0.01113426
vn 0.1410653 0.9729826 0.1827716
vn -0.05967961 0.9631835 0.262137
vn 0 -0.9784206 -0.206623
vn -0.82919 0 -0.5589669
vn 0.502346 0 0.8646667
vn -0.04548192 0.9892319 0.1391103
vn 0.01499221 0.9734116 0.228572
vn -0.9700227 0 -0.2430144
vn -0.5753127 0.8179335 0
vn 0.9258133 -0.001617752 0.3779778
vn 0.9262564 -0.0002650782 0.3768941
vn 0.01539424 0.9995146 0.02708267
vn 0.009609625 0.9997502 0.02017629
vn -0.07997798 -0.9892701 0.1222631
vn -0.6282595 0.7247673 -0.2828471
vn -0.4883863 0.8573077 -0.1627954
vn 0.8995175 -0.0004112637 0.4368844
vn 0.9001225 0.0008932861 0.435636
vn 0.03433357 0.984123 -0.1741355
vn -0.0009895345 0 0.9999995
vn 0.10047 0.9798923 0.1723861
vn 0.1462187 0.9768635 0.1560698
vn 0.1480439 0.988618 0.02678742
vn 0.03327885 0.9922435 0.1197721
vn 0.1166658 -0.9756446 0.1857598
vn 0.03320919 0.9840961 -0.1745052
vn 0.07035874 0.9756927 -0.207541
vn 0.6119749 0 -0.7908772
vn -0.08046319 -0.9952718 0.05440377
vn -0.4156877 -0.9090419 -0.02909595
vn -0.7007744 0.128898 -0.7016413
vn 0.06321206 0.8709161 -0.4873494
vn 0.1013481 -0.851535 0.5144091
vn -0.4099899 -0.7898363 0.4561435
vn 0.5249965 -0.002392513 0.851101
vn 0.5263504 -5.371927E-07 0.8502678
vn 0.9200318 0.25057 -0.3012578
vn 0.873481 0 -0.4868582
vn 0.154546 0.9879002 0.01299094
vn 0.09312235 0.9943892 -0.05018404
vn -0.5707847 0.6796135 -0.4607931
vn -0.6712527 -0.2630129 -0.6929965
vn 0.2219337 0.9548053 -0.197718
vn 0.2136414 0.9497945 -0.2285777
vn 0.09192057 0.9815562 -0.1676245
vn 0.2185734 0.9499491 -0.2232094
vn 0.1707768 0.9852736 -0.00844014
vn 0.1810716 0.9834699 0.000286228
vn 0.2778614 0.960486 0.01611683
vn 0.3268729 0.9420109 -0.07595705
vn 0.220597 0.9720894 0.07986888
vn 0.2189204 0.9721061 0.08416416
vn 0.2568988 0.9371488 0.2361252
vn 0.3408896 0.9051617 0.2539224
vn 0.3347261 0.9114333 0.239265
vn 0.3483078 0.9138821 0.2085691
vn -0.1619774 -0.9570267 -0.240548
vn -0.2822829 -0.8709539 -0.3557971
vn -0.4025884 -0.7848811 -0.471046
vn -0.1701927 -0.9837765 -0.05673091
vn -0.1790647 -0.9650201 0.1032254
vn -0.1879367 -0.9462638 0.2631817
vn -0.1249185 -0.992167 0
vn -0.126193 -0.9919972 -0.002764843
vn -0.1274676 -0.9918274 -0.005529687
vn 0.6519746 0 0.7582407
vn -0.3884442 -0.7920803 0.4708715
vn -0.378442 -0.8355924 0.3866206
vn -0.3684397 -0.8791045 0.3023698
vn 0.6386605 0 -0.7694887
vn 0.1277093 0.9800842 0.1520702
vn 0.09628656 0.9738301 0.2058733
vn 0.08621297 0.989097 0.1193923
vn 0.09959641 0.9903896 0.09596381
vn 0.1676478 0.9703957 -0.1738573
vn 0.2320678 0.9402862 -0.2490111
vn 0.2949137 0.8854839 -0.3590879
vn 0.2958657 0.8849327 -0.3596632
vn -0.3433739 -0.9154873 0.209708
vn -0.3370385 -0.914158 -0.01491588
vn -0.330703 -0.9128286 -0.2395397
vn -0.3909577 -0.795062 -0.4637117
vn -0.4523453 -0.3619907 -0.6593561
vn -0.5137329 0.07108065 -0.8550006
vn -0.3733081 -0.9264568 -0.04815454
vn -0.3827962 -0.9197493 -0.07990736
vn -0.3922843 -0.9130417 -0.1116602
vn -0.2725799 -0.8850744 0.3772846
vn -0.2530722 -0.925405 0.1320688
vn -0.2335646 -0.9657357 -0.113147
vn 0.5361906 0 0.844097
vn 0.5397633 0 -0.8418168
vn 0.3194814 0.9460374 0.05426807
vn 0.2978898 0.9496248 0.09733686
vn 0.3616019 0.9099739 -0.2029569
vn 0.2419961 0.9702621 -0.005419871
vn 0.3492755 0.8814689 -0.3178353
vn 0.06127794 0.9860798 -0.154569
vn 0.6035284 0.4006319 0.689382
vn 0.3310318 0.4489234 0.8299914
vn -0.4981945 0.002137442 0.8670626
vn -0.4978698 0.002835786 0.8672472
vn 0.004356104 -0.9990904 -0.04242048
vn -0.0003421046 -0.999535 -0.01923502
vn -0.005040314 -0.9999795 0.003950435
vn -0.01998609 -0.9994232 0.02745545
vn -0.02005633 -0.9993759 0.0290351
vn -0.02012656 -0.9993286 0.03061473
vn -0.08153212 -0.9873799 0.13577
vn -0.08037385 -0.9895538 0.1183848
vn -0.07921559 -0.9917278 0.1009997
vn 0.5030642 -5.054261E-07 -0.8642491
vn 0.1383251 0.9901748 0.02049277
vn 0.140679 0.9898798 0.01864167
vn 0.1447127 0.9894177 0.01053169
vn 0.1104304 0.9927692 0.04705793
vn 0.127373 0.9917697 0.01300033
vn 0.1458864 0.9892685 0.008054502

usemtl ProBuilderDefault
f 3/3/1 2/2/1 1/1/1
f 3/6/2 4/5/2 2/4/2
f 7/9/3 6/8/3 5/7/3
f 7/12/4 8/11/4 6/10/4
f 11/15/5 10/14/5 9/13/5
f 14/18/6 13/17/6 12/16/6
f 14/18/6 15/19/6 13/17/6
f 14/22/7 16/21/7 15/20/7
f 14/25/8 17/24/8 16/23/8
f 13/17/9 18/27/9 12/26/9
f 13/17/9 19/28/9 18/27/9
f 1/29/9 19/28/9 13/17/9
f 1/29/9 2/30/9 19/28/9
f 3/31/10 13/17/10 15/19/10
f 3/32/11 1/29/11 13/17/11
f 20/35/12 7/34/12 5/33/12
f 20/38/13 21/37/13 7/36/13
f 4/41/7 15/40/7 16/39/7
f 4/44/14 3/43/14 15/42/14
f 5/45/9 18/27/9 19/28/9
f 5/45/9 6/46/9 18/27/9
f 20/47/9 19/28/9 2/30/9
f 20/47/9 5/45/9 19/28/9
f 6/50/15 17/49/15 18/48/15
f 6/50/15 8/51/15 17/49/15
f 8/54/16 16/53/16 17/52/16
f 8/57/17 7/56/17 16/55/17
f 7/60/18 4/59/18 16/58/18
f 7/63/19 21/62/19 4/61/19
f 21/66/20 2/65/20 4/64/20
f 21/69/21 20/68/21 2/67/21
f 22/72/22 12/71/22 18/70/22
f 22/72/22 23/73/22 12/71/22
f 24/76/23 18/75/23 17/74/23
f 24/76/23 22/77/23 18/75/23
f 27/80/24 26/79/24 25/78/24
f 27/83/24 28/82/24 26/81/24
f 29/86/25 17/85/25 14/84/25
f 29/89/26 24/88/26 17/87/26
f 30/92/9 23/91/9 22/90/9
f 30/92/9 31/93/9 23/91/9
f 32/96/27 22/95/27 24/94/27
f 32/99/28 30/98/28 22/97/28
f 35/102/29 34/101/29 33/100/29
f 35/105/30 36/104/30 34/103/30
f 37/108/31 24/107/31 29/106/31
f 37/111/32 32/110/32 24/109/32
f 38/112/9 31/93/9 30/92/9
f 38/115/33 39/114/33 31/113/33
f 40/118/34 30/117/34 32/116/34
f 40/121/35 38/120/35 30/119/35
f 41/124/36 36/123/36 35/122/36
f 41/127/37 42/126/37 36/125/37
f 43/130/38 32/129/38 37/128/38
f 44/133/39 14/132/39 12/131/39
f 44/133/39 45/134/39 14/132/39
f 46/137/22 12/136/22 23/135/22
f 46/140/22 44/139/22 12/138/22
f 45/143/40 29/142/40 14/141/40
f 45/146/41 47/145/41 29/144/41
f 48/147/9 23/91/9 31/93/9
f 48/147/9 46/148/9 23/91/9
f 47/151/42 37/150/42 29/149/42
f 47/154/43 49/153/43 37/152/43
f 50/157/44 31/156/44 39/155/44
f 50/158/9 48/147/9 31/93/9
f 49/161/45 43/160/45 37/159/45
f 49/164/46 51/163/46 43/162/46
f 53/167/47 10/166/47 52/165/47
f 53/167/47 54/168/47 10/166/47
f 9/171/48 39/170/48 38/169/48
f 9/174/49 10/173/49 39/172/49
f 11/177/50 9/176/50 38/175/50
f 53/180/51 43/179/51 51/178/51
f 10/183/52 50/182/52 39/181/52
f 10/186/53 54/185/53 50/184/53
f 55/189/54 42/188/54 41/187/54
f 55/192/55 56/191/55 42/190/55
f 10/195/56 11/194/56 57/193/56
f 10/198/57 57/197/57 52/196/57
f 58/201/58 40/200/58 32/199/58
f 43/204/59 58/203/59 32/202/59
f 59/207/60 38/206/60 40/205/60
f 59/210/61 11/209/61 38/208/61
f 53/213/62 52/212/62 60/211/62
f 53/216/63 60/215/63 43/214/63
f 43/219/64 61/218/64 58/217/64
f 43/219/65 60/220/65 61/218/65
f 40/222/66 58/217/66 62/221/66
f 61/218/67 62/221/67 58/217/67
f 61/218/68 60/220/68 62/221/68
f 62/221/69 60/220/69 52/223/69
f 62/226/70 59/225/70 40/224/70
f 62/226/71 63/227/71 59/225/71
f 59/225/72 63/227/72 11/228/72
f 63/227/73 57/229/73 11/228/73
f 52/230/74 57/229/74 63/227/74
f 52/230/75 63/227/75 62/226/75
f 68/257/90 47/256/90 45/255/90
f 68/260/91 71/259/91 47/258/91
f 71/263/92 49/262/92 47/261/92
f 71/266/93 72/265/93 49/264/93
f 72/269/94 51/268/94 49/267/94
f 72/272/95 73/271/95 51/270/95
f 73/275/96 53/274/96 51/273/96
f 73/278/97 70/277/97 53/276/97
f 28/305/112 72/304/112 71/303/112
f 28/308/113 78/307/113 72/306/113
f 78/311/114 73/310/114 72/309/114
f 78/314/115 79/313/115 73/312/115
f 79/317/116 70/316/116 73/315/116
f 79/320/117 77/319/117 70/318/117
f 26/323/118 71/322/118 68/321/118
f 26/326/119 28/325/119 71/324/119
f 34/349/132 78/348/132 28/347/132
f 34/352/133 36/351/133 78/350/133
f 36/355/134 79/354/134 78/353/134
f 36/358/135 42/357/135 79/356/135
f 42/361/136 77/360/136 79/359/136
f 42/364/137 56/363/137 77/362/137
f 65/234/78 44/232/77 46/231/76
f 46/231/76 64/233/77 65/234/78
f 67/238/81 48/236/80 50/235/79
f 50/235/79 66/237/80 67/238/81
f 64/242/84 46/240/83 48/239/82
f 48/239/82 67/241/83 64/242/84
f 68/246/85 45/244/85 44/243/85
f 44/243/85 65/245/85 68/246/85
f 66/250/88 50/248/87 54/247/86
f 54/247/86 69/249/87 66/250/88
f 69/254/89 54/252/89 53/251/89
f 53/251/89 70/253/89 69/254/89
f 75/282/100 67/280/99 66/279/98
f 66/279/98 74/281/99 75/282/100
f 25/286/103 65/284/102 64/283/101
f 64/283/101 27/285/102 25/286/103
f 27/290/106 64/288/105 67/287/104
f 67/287/104 75/289/105 27/290/106
f 74/294/109 66/292/108 69/291/107
f 69/291/107 76/293/108 74/294/109
f 26/298/110 68/296/110 65/295/110
f 65/295/110 25/297/110 26/298/110
f 76/302/111 69/300/111 70/299/111
f 70/299/111 77/301/111 76/302/111
f 34/330/121 28/328/120 27/327/120
f 27/327/120 33/329/120 34/330/121
f 35/334/124 75/332/123 74/331/122
f 74/331/122 41/333/123 35/334/124
f 33/338/127 27/336/126 75/335/125
f 75/335/125 35/337/126 33/338/127
f 41/342/130 74/340/129 76/339/128
f 76/339/128 55/341/129 41/342/130
f 55/346/131 76/344/131 77/343/131
f 77/343/131 56/345/131 55/346/131

