# ProBuilder 5.0.7
# https://unity3d.com/unity/features/worldbuilding/probuilder
# 23.05.2024 02:53:15

mtllib ./Plug.mtl
o Plug

g CableHead
v -0.015 -0.02568274 1.910523E-29
v -0.015 -0.005682742 1.910523E-29
v -0.007499999 -0.02568274 0.01299038
v -0.007499999 -0.005682742 0.01299038
v 0.007500001 -0.02568274 0.01299038
v 0.007500001 -0.005682742 0.01299038
v 0.015 -0.02568274 -1.311342E-09
v 0.015 -0.005682742 -1.311342E-09
v 0.007499998 -0.02568274 -0.01299038
v 0.007499998 -0.005682742 -0.01299038
v -0.007499998 -0.02568274 -0.01299038
v -0.007499998 -0.005682742 -0.01299038
v 0 -0.02568274 1.910523E-29
v -0.004990131 0.02295177 -8.578587E-19
v 0 0.02568274 -9.184984E-19
v -0.002495065 0.02295177 0.00432158
v 0.002495066 0.02295177 0.00432158
v 0.004990131 0.02295177 -4.362511E-10
v 0.002495065 0.02295177 -0.00432158
v -0.002495065 0.02295177 -0.00432158
v -0.002495065 -0.00167744 0.00432158
v -0.004990131 -0.00167744 -3.109802E-19
v 0.002495066 -0.00167744 0.00432158
v -0.002495065 -0.00167744 -0.00432158
v 0.002495065 -0.00167744 -0.00432158
v 0.004990131 -0.00167744 -4.362511E-10
v -0.004990131 0.01063717 -5.844194E-19
v -0.002495065 0.01063717 0.00432158
v 0.002495066 0.01063717 0.00432158
v -0.002495065 0.01063717 -0.00432158
v 0.002495065 0.01063717 -0.00432158
v 0.004990131 0.01063717 -4.362511E-10
v -0.004990131 0.01679447 -7.211391E-19
v -0.002495065 0.01679447 0.00432158
v 0.002495066 0.01679447 0.00432158
v -0.002495065 0.01679447 -0.00432158
v 0.002495065 0.01679447 -0.00432158
v 0.004990131 0.01679447 -4.362511E-10
v -0.004328525 0.01371582 -6.527792E-19
v -0.002164262 0.01371582 0.003748613
v 0.002164263 0.01371582 0.003748613
v -0.002164262 0.01371582 -0.003748613
v 0.002164262 0.01371582 -0.003748613
v 0.004328525 0.01371582 -3.784117E-10

vt -0.0075 -0.02568274
vt -0.0075 -0.005682742
vt 0.007500001 -0.02568274
vt 0.007500001 -0.005682742
vt -0.007499998 -0.02568274
vt -0.007499998 -0.005682742
vt 0.007499998 -0.02568274
vt 0.007499998 -0.005682742
vt -0.015 1.910523E-29
vt 0 1.910523E-29
vt -0.007499999 0.01299038
vt -0.006641254 -0.006017738
vt -0.0123298 -0.006017738
vt -0.008829986 -0.001533224
vt 0.007500001 0.01299038
vt 0.002495065 -0.008607793
vt 0 -0.01371996
vt -0.002495066 -0.008607793
vt 0.015 -1.311342E-09
vt 0.008829987 -0.001533223
vt 0.0123298 -0.006017736
vt 0.006641256 -0.006017737
vt 0.007499998 -0.01299038
vt 0.006641254 0.006017738
vt 0.0123298 0.006017739
vt 0.008829987 0.001533225
vt -0.007499998 -0.01299038
vt -0.002495065 0.008607793
vt 0 0.01371996
vt 0.002495065 0.008607793
vt -0.008829987 0.001533225
vt -0.0123298 0.006017739
vt -0.006641254 0.006017739
vt 0.009074382 0.01322366
vt 0.01603763 -6.216733E-05
vt 0.002939669 0.0043577
vt 0.005256172 -6.216736E-05
vt -0.007500001 0.01417602
vt 0.007499999 0.01417602
vt -0.002495066 0.004626646
vt 0.002495065 0.004626646
vt 0.009074382 -0.01322366
vt 0.002939669 -0.0043577
vt 0.007499998 -0.01417602
vt -0.007499998 -0.01417602
vt 0.002495065 -0.004626646
vt -0.002495065 -0.004626646
vt -0.009074382 -0.01322366
vt -0.01603763 6.216627E-05
vt -0.002939669 -0.0043577
vt -0.005256172 6.216701E-05
vt -0.009074384 0.01322366
vt -0.00293967 0.0043577
vt 0.002495065 -0.00167744
vt -0.002495066 -0.00167744
vt -0.002495066 0.01063717
vt 0.002495065 0.01063717
vt -0.002495066 0.01679447
vt -0.002495066 0.02295177
vt 0.002495065 0.02295177
vt 0.002495065 0.01679447
vt -0.002164263 0.01371582
vt 0.002164263 0.01371582

vn -1 0 -3.441276E-08
vn -0.5 0 0.8660254
vn 0.5000001 0 0.8660254
vn 1 0 -1.032383E-07
vn 0.5 0 -0.8660254
vn -0.5 0 -0.8660254
vn 0 -1 0
vn -0.4626387 0.8453523 0.2671046
vn 0 0.8453523 0.5342093
vn 0.4626388 0.8453523 0.2671046
vn 0.4626387 0.8453523 -0.2671047
vn 0 0.8453523 -0.5342092
vn -0.4626387 0.8453523 -0.2671047
vn -0.3632377 0.9077873 0.2097154
vn 2.604169E-08 0.9077873 0.4194308
vn -0.3632378 0.9077873 -0.2097155
vn 0 0.9077873 -0.4194308
vn 0.3632378 0.9077873 -0.2097155
vn 0.3632378 0.9077873 0.2097154
vn -0.8660254 0 0.5000001
vn 0 0 1
vn -0.8660254 -1.110223E-17 -0.5000001
vn 0 0 -1
vn 0.8660253 0 -0.5000001
vn 0.8660254 0 0.4999999
vn -0.8514059 0.1829681 0.4915594
vn -0.8514059 -0.1829681 0.4915594
vn 0 0.1829681 0.9831188
vn 0 -0.1829681 0.9831188
vn -0.8514059 0.1829681 -0.4915595
vn -0.8514059 -0.1829681 -0.4915595
vn 0 -0.1829681 -0.9831188
vn 0 0.1829681 -0.9831188
vn 0.8514059 0.1829681 -0.4915596
vn 0.8514059 -0.1829681 -0.4915596
vn 0.851406 -0.1829681 0.4915593
vn 0.851406 0.1829681 0.4915593

usemtl Yellow_2
f 1/9/7 13/10/7 3/11/7
f 3/11/7 13/10/7 5/15/7
f 5/15/7 13/10/7 7/19/7
f 7/19/7 13/10/7 9/23/7
f 9/23/7 13/10/7 11/27/7
f 11/27/7 13/10/7 1/9/7
f 4/4/2 2/2/1 1/1/1
f 1/1/1 3/3/2 4/4/2
f 6/4/3 4/2/2 3/1/2
f 3/1/2 5/3/3 6/4/3
f 8/4/4 6/2/3 5/1/3
f 5/1/3 7/3/4 8/4/4
f 10/4/5 8/2/4 7/1/4
f 7/1/4 9/3/5 10/4/5
f 12/8/6 10/6/5 9/5/5
f 9/5/5 11/7/6 12/8/6
f 2/4/1 12/2/6 11/1/6
f 11/1/6 1/3/1 2/4/1
f 22/37/14 2/35/14 4/34/14
f 4/34/14 21/36/14 22/37/14
f 21/41/15 4/39/15 6/38/15
f 6/38/15 23/40/15 21/41/15
f 24/43/16 12/42/16 2/35/16
f 2/35/16 22/37/16 24/43/16
f 25/47/17 10/45/17 12/44/17
f 12/44/17 24/46/17 25/47/17
f 26/51/18 8/49/18 10/48/18
f 10/48/18 25/50/18 26/51/18
f 23/53/19 6/52/19 8/49/19
f 8/49/19 26/51/19 23/53/19

usemtl Metal_01
f 16/14/8 15/13/8 14/12/8
f 17/18/9 15/17/9 16/16/9
f 18/22/10 15/21/10 17/20/10
f 19/26/11 15/25/11 18/24/11
f 20/30/12 15/29/12 19/28/12
f 14/33/13 15/32/13 20/31/13
f 27/56/20 22/55/20 21/54/20
f 21/54/20 28/57/20 27/56/20
f 28/56/21 21/55/21 23/54/21
f 23/54/21 29/57/21 28/56/21
f 30/56/22 24/55/22 22/54/22
f 22/54/22 27/57/22 30/56/22
f 30/57/23 31/56/23 25/55/23
f 25/55/23 24/54/23 30/57/23
f 31/57/24 32/56/24 26/55/24
f 26/55/24 25/54/24 31/57/24
f 26/54/25 32/57/25 29/56/25
f 29/56/25 23/55/25 26/54/25
f 14/59/20 33/58/20 34/61/20
f 34/61/20 16/60/20 14/59/20
f 16/59/21 34/58/21 35/61/21
f 35/61/21 17/60/21 16/59/21
f 20/59/22 36/58/22 33/61/22
f 33/61/22 14/60/22 20/59/22
f 20/60/23 19/59/23 37/58/23
f 37/58/23 36/61/23 20/60/23
f 37/61/24 19/60/24 18/59/24
f 18/59/24 38/58/24 37/61/24
f 18/60/25 17/59/25 35/58/25
f 35/58/25 38/61/25 18/60/25
f 39/62/26 27/56/26 28/57/26
f 28/57/26 40/63/26 39/62/26
f 33/58/27 39/62/27 40/63/27
f 40/63/27 34/61/27 33/58/27
f 40/62/28 28/56/28 29/57/28
f 29/57/28 41/63/28 40/62/28
f 34/58/29 40/62/29 41/63/29
f 41/63/29 35/61/29 34/58/29
f 42/62/30 30/56/30 27/57/30
f 27/57/30 39/63/30 42/62/30
f 36/58/31 42/62/31 39/63/31
f 39/63/31 33/61/31 36/58/31
f 36/61/32 37/58/32 43/62/32
f 43/62/32 42/63/32 36/61/32
f 42/63/33 43/62/33 31/56/33
f 31/56/33 30/57/33 42/63/33
f 43/63/34 44/62/34 32/56/34
f 32/56/34 31/57/34 43/63/34
f 37/61/35 38/58/35 44/62/35
f 44/62/35 43/63/35 37/61/35
f 38/61/36 35/58/36 41/62/36
f 41/62/36 44/63/36 38/61/36
f 44/63/37 41/62/37 29/56/37
f 29/56/37 32/57/37 44/63/37

