# ProBuilder 5.0.7
# https://unity3d.com/unity/features/worldbuilding/probuilder
# 23.05.2024 02:53:59

mtllib ./Socket.mtl
o Socket

g Pipe
v -0.007499999 -0.02 0.01299038
v -0.015 -0.02 0
v -0.007499999 0.02 0.01299038
v -0.015 0.02 0
v -0.005 -0.02 0
v -0.0025 -0.02 0.004330127
v -0.005 0.02 0
v -0.0025 0.02 0.004330127
v 0.007500001 -0.02 0.01299038
v 0.007500001 0.02 0.01299038
v 0.0025 -0.02 0.004330127
v 0.0025 0.02 0.004330127
v 0.015 -0.02 -1.311342E-09
v 0.015 0.02 -1.311342E-09
v 0.005 -0.02 -4.371139E-10
v 0.005 0.02 -4.371139E-10
v 0.007499998 -0.02 -0.01299038
v 0.007499998 0.02 -0.01299038
v 0.002499999 -0.02 -0.004330127
v 0.002499999 0.02 -0.004330127
v -0.007499998 -0.02 -0.01299038
v -0.007499998 0.02 -0.01299038
v -0.002499999 -0.02 -0.004330127
v -0.002499999 0.02 -0.004330127
v -0.01221575 -0.02076109 0
v -0.006107873 -0.02076109 0.01057915
v -0.007815007 -0.02076109 -4.280571E-10
v -0.003907504 -0.02076109 0.006767995
v 0.006107875 -0.02076109 0.01057915
v 0.003907504 -0.02076109 0.006767995
v 0.01221575 -0.02076109 -7.584534E-10
v 0.007815007 -0.02076109 -4.280571E-10
v 0.006107872 -0.02076109 -0.01057915
v 0.003907502 -0.02076109 -0.006767994
v -0.006107872 -0.02076109 -0.01057915
v -0.003907502 -0.02076109 -0.006767994

vt 0.007500001 -0.02
vt -0.0075 -0.02
vt 0.007500001 0.02
vt -0.0075 0.02
vt 0.0025 -0.02
vt -0.002500001 -0.02
vt 0.0025 0.02
vt -0.002500001 0.02
vt 0.002500001 -0.02
vt -0.002499999 -0.02
vt 0.002500001 0.02
vt -0.002499999 0.02
vt 0.007499998 -0.02
vt -0.007499998 -0.02
vt 0.007499998 0.02
vt -0.007499998 0.02
vt -0.01221575 0
vt -0.006107873 0.01057915
vt -0.007815007 -4.280571E-10
vt -0.003907504 0.006767995
vt 0.007499999 0.01299038
vt 0.015 0
vt 0.0025 0.004330127
vt 0.005 0
vt 0.006107875 0.01057915
vt 0.003907504 0.006767995
vt -0.007500001 0.01299038
vt -0.0025 0.004330127
vt 0.01221575 -7.584534E-10
vt 0.007815007 -4.280571E-10
vt -0.015 -1.311342E-09
vt -0.005 -4.371139E-10
vt 0.006107872 -0.01057915
vt 0.003907502 -0.006767994
vt -0.007499998 -0.01299038
vt -0.002499999 -0.004330127
vt -0.006107872 -0.01057915
vt -0.003907502 -0.006767994
vt 0.007499998 -0.01299038
vt 0.002499999 -0.004330127
vt -0.009195483 -0.003498815
vt -0.001960912 0.009641238
vt -0.006309079 -0.003498815
vt -0.000417366 0.007202223
vt -0.01004668 -0.002682371
vt -0.007633333 -0.007061383
vt -0.01296276 -0.002682372
vt -0.009190695 -0.009526774
vt -0.007633335 0.007061383
vt -0.01004668 0.00268237
vt -0.009190699 0.009526773
vt -0.01296276 0.002682369
vt -0.0075 0.00636778
vt 0.0075 0.006367779
vt -0.006107873 0.00383928
vt 0.006107874 0.003839279
vt 0.0025 0.01009361
vt -0.0025 0.01009361
vt 0.003907504 0.01264752
vt -0.003907504 0.01264752
vt 0.001960911 0.009641236
vt 0.00919548 -0.003498818
vt 0.006309077 -0.003498817
vt 0.01004668 0.002682369
vt 0.007633334 0.007061383
vt 0.01296276 0.002682369
vt 0.009190698 0.009526772
vt 0.009195482 0.003498815
vt 0.001960911 -0.009641237
vt 0.006309079 0.003498816
vt 0.000417365 -0.007202222
vt 0.007633334 -0.007061384
vt 0.01004668 -0.002682372
vt 0.009190696 -0.009526775
vt 0.01296276 -0.002682372
vt 0.007499998 -0.00636778
vt -0.007499998 -0.00636778
vt 0.006107872 -0.00383928
vt -0.006107872 -0.00383928
vt -0.002499999 -0.01009361
vt 0.002499999 -0.01009361
vt -0.003907502 -0.01264752
vt 0.003907502 -0.01264752
vt -0.001960911 -0.009641237
vt -0.009195482 0.003498817
vt -0.006309078 0.003498817

vn -0.5 0 0.8660254
vn -1 0 -3.441276E-08
vn 1 0 1.204447E-07
vn 0.5000001 0 -0.8660254
vn 0.5000001 0 0.8660254
vn -0.5000001 0 -0.8660253
vn 0.5 0 -0.8660254
vn 0.4999999 0 0.8660254
vn 0 -1 0
vn 0 1 0
vn -0.2606794 -0.953622 0.1505033
vn 0.2580856 -0.9545622 0.1490059
vn 0.2580857 -0.9545622 -0.1490058
vn 1.868896E-08 -0.953622 0.3010067
vn 0 -0.9545622 -0.2980117
vn 0.2606795 -0.953622 0.1505034
vn -0.2580856 -0.9545622 -0.1490058
vn 0.2606795 -0.953622 -0.1505034
vn -0.2580857 -0.9545622 0.1490059
vn 0 -0.953622 -0.3010067
vn 0 -0.9545622 0.2980117
vn -0.2606795 -0.953622 -0.1505034

usemtl Metal_01
f 7/7/3 8/8/4 6/6/4 5/5/3
f 8/7/4 12/8/6 11/6/6 6/5/4
f 12/11/6 16/12/2 15/10/2 11/9/6
f 16/11/2 20/12/1 19/10/1 15/9/2
f 20/7/1 24/12/8 23/10/8 19/5/1
f 24/7/8 7/8/3 5/6/3 23/5/8
f 8/23/10 7/24/10 4/22/10 3/21/10
f 12/28/10 8/23/10 3/21/10 10/27/10
f 16/32/10 12/28/10 10/27/10 14/31/10
f 20/36/10 16/32/10 14/31/10 18/35/10
f 24/40/10 20/36/10 18/35/10 22/39/10
f 7/24/10 24/40/10 22/39/10 4/22/10
f 25/43/11 26/44/11 1/42/11 2/41/11
f 27/47/12 36/48/12 23/46/12 5/45/12
f 28/51/13 27/52/13 5/50/13 6/49/13
f 26/55/14 29/56/14 9/54/14 1/53/14
f 30/59/15 28/60/15 6/58/15 11/57/15
f 29/44/16 31/63/16 13/62/16 9/61/16
f 32/66/17 30/67/17 11/65/17 15/64/17
f 31/70/18 33/71/18 17/69/18 13/68/18
f 34/74/19 32/75/19 15/73/19 19/72/19
f 33/78/20 35/79/20 21/77/20 17/76/20
f 36/82/21 34/83/21 19/81/21 23/80/21
f 35/71/22 25/86/22 2/85/22 21/84/22

usemtl MetalForBool
f 3/3/1 4/4/2 2/2/2 1/1/1
f 10/3/5 3/4/1 1/2/1 9/1/5
f 14/3/3 10/4/5 9/2/5 13/1/3
f 18/3/7 14/4/3 13/2/3 17/1/7
f 22/15/6 18/16/7 17/14/7 21/13/6
f 4/3/2 22/4/6 21/2/6 2/1/2
f 27/19/9 28/20/9 26/18/9 25/17/9
f 28/20/9 30/26/9 29/25/9 26/18/9
f 30/26/9 32/30/9 31/29/9 29/25/9
f 32/30/9 34/34/9 33/33/9 31/29/9
f 34/34/9 36/38/9 35/37/9 33/33/9
f 36/38/9 27/19/9 25/17/9 35/37/9

